<svg xmlns="http://www.w3.org/2000/svg" viewBox="0 0 117 107.5"><defs><style>.cls-1{fill:#ebf4f6;}.cls-1,.cls-2,.cls-3{stroke:#263239;stroke-linejoin:round;stroke-width:2.5px;}.cls-2{fill:#fff;}.cls-3{fill:none;}.cls-4{fill:#263239;}</style></defs><title>Asset 46</title><g id="Layer_2" data-name="Layer 2"><g id="outine_orig." data-name="outine orig."><path class="cls-1" d="M13.5,31.25l30-10v-5h-25l-5-15S9.86,5,5.64,9.25c-5.21,5.26-5.59,12-2.14,17S13.5,31.25,13.5,31.25Z"/><path class="cls-1" d="M103.5,31.25l-30-10v-5h25l5-15s3.64,3.73,7.86,8c5.21,5.26,5.59,12,2.14,17S103.5,31.25,103.5,31.25Z"/><polygon class="cls-1" points="43.5 21.25 18.5 41.25 8.5 41.25 13.5 31.25 43.5 21.25"/><polygon class="cls-1" points="73.5 21.25 98.5 41.25 108.5 41.25 103.5 31.25 73.5 21.25"/><path class="cls-1" d="M53.5,91.25h30s15-30,15-45v-5l-25-25h-30l-25,25v5c0,15,15,45,15,45h30"/><polygon class="cls-2" points="83.5 56.25 73.5 56.25 68.5 51.25 73.5 41.25 73.5 41.25 83.5 41.25 88.5 51.25 83.5 56.25"/><line class="cls-2" x1="68.5" y1="51.25" x2="68.5" y2="61.25"/><polygon class="cls-2" points="33.5 56.25 43.5 56.25 48.5 51.25 43.5 41.25 43.5 41.25 33.5 41.25 28.5 51.25 33.5 56.25"/><line class="cls-2" x1="48.5" y1="51.25" x2="48.5" y2="61.25"/><rect class="cls-2" x="33.5" y="81.25" width="50" height="20" rx="10"/><circle class="cls-2" cx="43.5" cy="91.25" r="5"/><circle class="cls-2" cx="73.5" cy="91.25" r="5"/><polyline class="cls-3" points="43.5 31.25 53.5 31.25 58.5 36.25 63.5 31.25 73.5 31.25"/><circle class="cls-1" cx="83.5" cy="91.25" r="15"/><polyline class="cls-1" points="73.5 91.25 83.5 81.25 93.5 91.25"/><line class="cls-1" x1="83.5" y1="81.25" x2="83.5" y2="101.25"/><circle class="cls-4" cx="38.5" cy="49.25" r="2.5"/><circle class="cls-4" cx="78.5" cy="49.25" r="2.5"/></g></g></svg>