<svg xmlns="http://www.w3.org/2000/svg" viewBox="0 0 112.46 112.83"><defs><style>.cls-1{fill:#fff;}.cls-1,.cls-2,.cls-3{stroke:#263239;stroke-linejoin:round;stroke-width:2.5px;}.cls-2{fill:#ebf4f6;}.cls-3{fill:none;}</style></defs><title>Asset 40</title><g id="Layer_2" data-name="Layer 2"><g id="per_export" data-name="per export"><polyline class="cls-1" points="36.23 86.58 26.23 101.71 36.23 101.71 41.31 111.58 51.31 96.58"/><polyline class="cls-1" points="76.23 86.58 86.23 101.71 76.23 101.71 71.31 111.58 61.31 96.58"/><path class="cls-1" d="M1.25,1.25h110a0,0,0,0,1,0,0V80.82a.77.77,0,0,1-.77.77H1.25a0,0,0,0,1,0,0V1.25A0,0,0,0,1,1.25,1.25Z"/><circle class="cls-1" cx="56.31" cy="71.58" r="25"/><polygon class="cls-2" points="41.31 56.58 41.31 81.58 56.31 91.58 71.31 81.58 71.31 56.58 56.31 51.58 41.31 56.58"/><polyline class="cls-3" points="46.31 66.58 56.31 81.58 66.31 61.58"/><line class="cls-3" x1="21.31" y1="26.58" x2="36.31" y2="26.58"/><line class="cls-3" x1="16.31" y1="31.58" x2="41.31" y2="31.58"/><line class="cls-3" x1="21.31" y1="36.58" x2="36.31" y2="36.58"/><line class="cls-3" x1="71.31" y1="26.58" x2="96.31" y2="26.58"/><line class="cls-3" x1="76.31" y1="31.58" x2="91.31" y2="31.58"/><line class="cls-3" x1="71.31" y1="36.58" x2="96.31" y2="36.58"/><rect class="cls-3" x="11.31" y="11.58" width="90" height="5"/></g></g></svg>