<svg xmlns="http://www.w3.org/2000/svg" viewBox="0 0 132.51 102.5"><defs><style>.cls-1{fill:#fff;}.cls-1,.cls-2,.cls-3{stroke:#263239;stroke-linejoin:round;stroke-width:2.5px;}.cls-2{fill:#ebf4f6;}.cls-3{fill:none;}</style></defs><title>Asset 36</title><g id="Layer_2" data-name="Layer 2"><g id="per_export" data-name="per export"><rect class="cls-1" x="71.25" y="91.25" width="55" height="10"/><rect class="cls-1" x="76.25" y="81.25" width="55.01" height="10"/><rect class="cls-1" x="71.25" y="61.25" width="55" height="10"/><rect class="cls-1" x="61.25" y="71.25" width="55" height="10"/><line class="cls-1" x1="76.25" y1="61.25" x2="76.25" y2="71.25"/><line class="cls-1" x1="81.49" y1="61.25" x2="81.49" y2="71.25"/><line class="cls-1" x1="91.37" y1="61.25" x2="91.37" y2="71.25"/><line class="cls-1" x1="106.25" y1="61.25" x2="106.25" y2="71.25"/><line class="cls-1" x1="116.25" y1="61.25" x2="116.25" y2="71.25"/><line class="cls-1" x1="121.25" y1="61.25" x2="121.25" y2="71.25"/><line class="cls-1" x1="66.25" y1="71.67" x2="66.25" y2="81.67"/><line class="cls-1" x1="71.25" y1="71.25" x2="71.25" y2="81.25"/><line class="cls-1" x1="81.25" y1="71.25" x2="81.25" y2="81.25"/><line class="cls-1" x1="96.25" y1="71.25" x2="96.25" y2="81.25"/><line class="cls-1" x1="106.25" y1="71.25" x2="106.25" y2="81.25"/><line class="cls-1" x1="111.25" y1="71.25" x2="111.25" y2="81.25"/><line class="cls-1" x1="76.25" y1="91.67" x2="76.25" y2="101.67"/><line class="cls-1" x1="81.25" y1="91.25" x2="81.25" y2="101.25"/><line class="cls-1" x1="91.25" y1="91.25" x2="91.25" y2="101.25"/><line class="cls-1" x1="106.25" y1="91.25" x2="106.25" y2="101.25"/><line class="cls-1" x1="116.25" y1="91.25" x2="116.25" y2="101.25"/><line class="cls-1" x1="121.25" y1="91.25" x2="121.25" y2="101.25"/><line class="cls-1" x1="81.25" y1="81.25" x2="81.25" y2="91.25"/><line class="cls-1" x1="86.25" y1="81.25" x2="86.25" y2="91.25"/><line class="cls-1" x1="96.25" y1="81.25" x2="96.25" y2="91.25"/><line class="cls-1" x1="111.26" y1="81.25" x2="111.26" y2="91.25"/><line class="cls-1" x1="121.26" y1="81.25" x2="121.26" y2="91.25"/><line class="cls-1" x1="126.26" y1="81.25" x2="126.26" y2="91.25"/><circle class="cls-1" cx="96.25" cy="31.25" r="30"/><circle class="cls-2" cx="96.25" cy="31.25" r="24"/><path class="cls-3" d="M102.21,41.61a5.4,5.4,0,0,0,5.45-5.45,5.09,5.09,0,0,0-5.45-5.46H91.3"/><line class="cls-3" x1="91.3" y1="25.25" x2="102.32" y2="25.25"/><line class="cls-3" x1="91.3" y1="36.16" x2="102.32" y2="36.16"/><line class="cls-3" x1="91.3" y1="19.8" x2="91.3" y2="14.34"/><line class="cls-3" x1="96.75" y1="19.8" x2="96.75" y2="14.34"/><line class="cls-3" x1="91.3" y1="47.07" x2="91.3" y2="41.61"/><path class="cls-3" d="M96.75,47.07V41.61H85.84V19.8h16.37a5.08,5.08,0,0,1,5.45,5.45,5.39,5.39,0,0,1-5.45,5.45H91.3"/><path class="cls-1" d="M6.25,46.25h75a5,5,0,0,1,5,5V95.48a5.77,5.77,0,0,1-5.77,5.77H6.25a5,5,0,0,1-5-5v-45A5,5,0,0,1,6.25,46.25Z"/><line class="cls-1" x1="11.23" y1="86.25" x2="31.23" y2="86.25"/><line class="cls-1" x1="21.23" y1="91.25" x2="31.23" y2="91.25"/><line class="cls-1" x1="51.23" y1="56.25" x2="76.23" y2="56.25"/><line class="cls-1" x1="51.23" y1="61.25" x2="66.23" y2="61.25"/><rect class="cls-2" x="57.69" y="87.71" width="7.07" height="7.07" transform="translate(-46.59 70.02) rotate(-45)"/><circle class="cls-2" cx="71.23" cy="91.25" r="5"/><rect class="cls-2" x="11.23" y="56.16" width="15" height="10"/><line class="cls-1" x1="16.23" y1="56.16" x2="16.23" y2="66.16"/><line class="cls-1" x1="16.23" y1="61.16" x2="26.23" y2="61.16"/><line class="cls-1" x1="11.23" y1="76.25" x2="16.23" y2="76.25"/><line class="cls-1" x1="11.23" y1="91.25" x2="16.23" y2="91.25"/><line class="cls-1" x1="26.23" y1="76.25" x2="31.23" y2="76.25"/><line class="cls-1" x1="41.23" y1="76.25" x2="46.23" y2="76.25"/><line class="cls-1" x1="56.23" y1="76.25" x2="61.23" y2="76.25"/><line class="cls-1" x1="71.23" y1="76.25" x2="76.23" y2="76.25"/></g></g></svg>