<svg xmlns="http://www.w3.org/2000/svg" viewBox="0 0 112.48 93.6"><defs><style>.cls-1{fill:#ebf4f6;}.cls-1,.cls-2,.cls-3{stroke:#263239;stroke-linejoin:round;stroke-width:2.5px;}.cls-2,.cls-3{fill:none;}.cls-3{stroke-linecap:square;}</style></defs><title>Asset 35</title><g id="Layer_2" data-name="Layer 2"><g id="per_export" data-name="per export"><path class="cls-1" d="M30.48,36.25h75.75a5,5,0,0,1,5,5V86.58a5.77,5.77,0,0,1-5.77,5.77h-75a5,5,0,0,1-5-5V41.25A5,5,0,0,1,30.48,36.25Z"/><rect class="cls-2" x="25.46" y="46.25" width="85.77" height="15"/><rect class="cls-2" x="86.23" y="76.25" width="15" height="5"/><line class="cls-3" x1="36.23" y1="76.25" x2="51.23" y2="76.25"/><line class="cls-3" x1="46.23" y1="81.25" x2="51.23" y2="81.25"/><line class="cls-3" x1="36.23" y1="81.25" x2="41.23" y2="81.25"/><line class="cls-3" x1="61.23" y1="76.25" x2="76.23" y2="76.25"/><line class="cls-3" x1="71.23" y1="81.25" x2="76.23" y2="81.25"/><line class="cls-3" x1="61.23" y1="81.25" x2="66.23" y2="81.25"/><line class="cls-2" x1="106.23" y1="46.25" x2="106.23" y2="61.25"/><line class="cls-2" x1="101.23" y1="46.25" x2="101.23" y2="61.25"/><line class="cls-2" x1="96.23" y1="46.25" x2="96.23" y2="61.25"/><line class="cls-2" x1="91.23" y1="46.25" x2="91.23" y2="61.25"/><line class="cls-2" x1="86.23" y1="46.25" x2="86.23" y2="61.25"/><line class="cls-2" x1="81.23" y1="46.25" x2="81.23" y2="61.25"/><line class="cls-2" x1="76.23" y1="46.25" x2="76.23" y2="61.25"/><line class="cls-2" x1="71.23" y1="46.25" x2="71.23" y2="61.25"/><line class="cls-2" x1="66.23" y1="46.25" x2="66.23" y2="61.25"/><line class="cls-2" x1="61.23" y1="46.25" x2="61.23" y2="61.25"/><line class="cls-2" x1="56.23" y1="46.25" x2="56.23" y2="61.25"/><line class="cls-2" x1="51.23" y1="46.25" x2="51.23" y2="61.25"/><line class="cls-2" x1="46.23" y1="46.25" x2="46.23" y2="61.25"/><line class="cls-2" x1="41.23" y1="46.25" x2="41.23" y2="61.25"/><line class="cls-2" x1="36.23" y1="46.25" x2="36.23" y2="61.25"/><line class="cls-2" x1="31.23" y1="46.25" x2="31.23" y2="61.25"/><path class="cls-1" d="M6.25,1.25H82a5,5,0,0,1,5,5V50.48a5.77,5.77,0,0,1-5.77,5.77h-75a5,5,0,0,1-5-5v-45A5,5,0,0,1,6.25,1.25Z"/><line class="cls-3" x1="11.23" y1="41.25" x2="31.23" y2="41.25"/><line class="cls-3" x1="21.23" y1="46.25" x2="31.23" y2="46.25"/><line class="cls-3" x1="51.23" y1="11.25" x2="76.23" y2="11.25"/><line class="cls-3" x1="51.23" y1="16.25" x2="66.23" y2="16.25"/><rect class="cls-2" x="57.69" y="42.71" width="7.07" height="7.07" transform="translate(-14.77 56.84) rotate(-45)"/><circle class="cls-2" cx="71.23" cy="46.25" r="5"/><rect class="cls-2" x="11.23" y="11.16" width="15" height="10"/><line class="cls-2" x1="16.23" y1="11.16" x2="16.23" y2="21.16"/><line class="cls-2" x1="16.23" y1="16.16" x2="26.23" y2="16.16"/><line class="cls-3" x1="11.23" y1="31.25" x2="16.23" y2="31.25"/><line class="cls-3" x1="11.23" y1="46.25" x2="16.23" y2="46.25"/><line class="cls-3" x1="26.23" y1="31.25" x2="31.23" y2="31.25"/><line class="cls-3" x1="41.23" y1="31.25" x2="46.23" y2="31.25"/><line class="cls-3" x1="56.23" y1="31.25" x2="61.23" y2="31.25"/><line class="cls-3" x1="71.23" y1="31.25" x2="76.23" y2="31.25"/></g></g></svg>