<svg xmlns="http://www.w3.org/2000/svg" viewBox="0 0 122.5 122.5"><defs><style>.cls-1{fill:#ebf4f6;}.cls-1,.cls-2{stroke:#263239;stroke-linejoin:round;stroke-width:2.5px;}.cls-2{fill:none;}</style></defs><title>Asset 41</title><g id="Layer_2" data-name="Layer 2"><g id="per_export" data-name="per export"><circle class="cls-1" cx="61.25" cy="61.25" r="25"/><circle class="cls-2" cx="61.25" cy="61.25" r="20"/><path class="cls-2" d="M66.25,71.25a5,5,0,0,0,5-5,4.66,4.66,0,0,0-5-5h-10"/><line class="cls-2" x1="56.25" y1="56.25" x2="66.36" y2="56.25"/><line class="cls-2" x1="56.25" y1="66.25" x2="66.36" y2="66.25"/><line class="cls-2" x1="56.25" y1="51.25" x2="56.25" y2="46.25"/><line class="cls-2" x1="61.25" y1="51.25" x2="61.25" y2="46.25"/><line class="cls-2" x1="56.25" y1="76.25" x2="56.25" y2="71.25"/><path class="cls-2" d="M61.25,76.25v-5h-10v-20h15a4.66,4.66,0,0,1,5,5,5,5,0,0,1-5,5h-10"/><circle class="cls-1" cx="46.25" cy="116.25" r="5"/><circle class="cls-1" cx="61.25" cy="16.25" r="5"/><circle class="cls-1" cx="6.25" cy="46.25" r="5"/><circle class="cls-1" cx="36.25" cy="16.25" r="5"/><circle class="cls-1" cx="16.25" cy="61.25" r="5"/><circle class="cls-1" cx="76.25" cy="6.25" r="5"/><circle class="cls-1" cx="61.25" cy="106.25" r="5"/><circle class="cls-1" cx="116.25" cy="76.25" r="5"/><circle class="cls-1" cx="106.25" cy="61.25" r="5"/><line class="cls-2" x1="61.25" y1="36.25" x2="61.25" y2="21.25"/><circle class="cls-1" cx="91.25" cy="16.25" r="5"/><line class="cls-2" x1="91.25" y1="36.25" x2="91.25" y2="21.25"/><line class="cls-2" x1="86.25" y1="61.25" x2="101.25" y2="61.25"/><circle class="cls-1" cx="106.25" cy="91.25" r="5"/><line class="cls-2" x1="86.25" y1="91.25" x2="101.25" y2="91.25"/><line class="cls-2" x1="36.25" y1="61.25" x2="21.25" y2="61.25"/><circle class="cls-1" cx="16.25" cy="31.25" r="5"/><line class="cls-2" x1="36.25" y1="31.25" x2="21.25" y2="31.25"/><line class="cls-2" x1="61.25" y1="86.25" x2="61.25" y2="101.25"/><circle class="cls-1" cx="31.25" cy="106.25" r="5"/><line class="cls-2" x1="31.25" y1="86.25" x2="31.25" y2="101.25"/><polyline class="cls-2" points="61.25 36.25 76.25 21.25 76.25 11.25"/><polyline class="cls-2" points="86.25 61.25 101.25 76.25 111.25 76.25"/><polyline class="cls-2" points="61.25 86.25 46.25 101.25 46.25 111.25"/><polyline class="cls-2" points="36.25 61.25 21.25 46.25 11.25 46.25"/><polyline class="cls-2" points="21.25 46.25 36.25 31.25 36.25 21.25"/><circle class="cls-1" cx="106.25" cy="36.25" r="5"/><polyline class="cls-2" points="76.25 21.25 91.25 36.25 101.25 36.25"/><circle class="cls-1" cx="16.25" cy="86.25" r="5"/><polyline class="cls-2" points="46.25 101.25 31.25 86.25 21.25 86.25"/><circle class="cls-1" cx="86.25" cy="106.25" r="5"/><polyline class="cls-2" points="101.25 76.25 86.25 91.25 86.25 101.25"/></g></g></svg>