<svg xmlns="http://www.w3.org/2000/svg" viewBox="0 0 132.5 92.63"><defs><style>.cls-1{fill:#ebf4f6;}.cls-1,.cls-2{stroke:#263239;stroke-linejoin:round;stroke-width:2.5px;}.cls-2{fill:none;}</style></defs><title>Asset 42</title><g id="Layer_2" data-name="Layer 2"><g id="outine_orig." data-name="outine orig."><polygon class="cls-1" points="21.42 91.38 111.42 91.38 111.42 81.25 126.42 46.02 91.42 51.25 66.42 16.25 42.37 51.67 6.42 46.02 21.42 81.25 21.42 91.38"/><polygon class="cls-2" points="66.42 41.25 76.42 51.25 66.42 71.25 56.42 51.25 66.42 41.25"/><polygon class="cls-1" points="6.25 31.25 11.25 36.25 6.25 46.25 1.25 36.25 6.25 31.25"/><polygon class="cls-1" points="126.25 31.25 131.25 36.25 126.25 46.25 121.25 36.25 126.25 31.25"/><circle class="cls-1" cx="66.25" cy="8.75" r="7.5"/><circle class="cls-2" cx="101.25" cy="66.25" r="5"/><circle class="cls-2" cx="31.25" cy="66.25" r="5"/><rect class="cls-2" x="21.42" y="81.25" width="90" height="10.13"/></g></g></svg>