<svg xmlns="http://www.w3.org/2000/svg" viewBox="0 0 132.5 92.63"><defs><style>.cls-1{fill:#ebf4f6;}.cls-1,.cls-2{stroke:#263239;stroke-linejoin:round;stroke-width:2.5px;}.cls-2{fill:none;}</style></defs><title>Asset 43</title><g id="Layer_2" data-name="Layer 2"><g id="outine_orig." data-name="outine orig."><polygon class="cls-1" points="21.25 91.38 111.25 91.38 111.25 81.25 126.25 51.25 101.17 36.25 91.25 51.25 66.25 16.25 41.25 51.25 31.17 36.25 6.25 51.25 21.25 81.25 21.25 91.38"/><polygon class="cls-1" points="31.17 20.61 36.17 25.61 31.17 35.61 26.17 25.61 31.17 20.61"/><polygon class="cls-1" points="6.25 36.25 11.25 41.25 6.25 51.25 1.25 41.25 6.25 36.25"/><polygon class="cls-1" points="101.17 20.61 106.17 25.61 101.17 35.61 96.17 25.61 101.17 20.61"/><polygon class="cls-1" points="126.25 36.25 131.25 41.25 126.25 51.25 121.25 41.25 126.25 36.25"/><polygon class="cls-2" points="66.25 41.88 76.25 51.88 66.25 71.88 56.25 51.88 66.25 41.88"/><circle class="cls-1" cx="66.25" cy="8.75" r="7.5"/><circle class="cls-2" cx="101.25" cy="66.25" r="5"/><circle class="cls-2" cx="31.25" cy="66.25" r="5"/><rect class="cls-2" x="21.25" y="81.25" width="90" height="10"/></g></g></svg>