<svg xmlns="http://www.w3.org/2000/svg" viewBox="0 0 132.5 92.5"><defs><style>.cls-1{fill:#ebf4f6;}.cls-1,.cls-2{stroke:#263239;stroke-linejoin:round;stroke-width:2.5px;}.cls-2{fill:none;}</style></defs><title>Asset 44</title><g id="Layer_2" data-name="Layer 2"><g id="outine_orig." data-name="outine orig."><polygon class="cls-1" points="21.08 91.25 111.08 91.25 111.08 81.12 126.25 46.25 91.08 51.12 66.08 16.12 41.08 51.12 6.25 46.25 21.08 81.12 21.08 91.25"/><polygon class="cls-2" points="66.08 40.74 76.08 50.74 66.08 70.74 56.08 50.74 66.08 40.74"/><line class="cls-2" x1="21.08" y1="80.74" x2="111.08" y2="80.74"/><polygon class="cls-1" points="6.25 31.25 11.25 36.25 6.25 46.25 1.25 36.25 6.25 31.25"/><polygon class="cls-1" points="126.25 31.25 131.25 36.25 126.25 46.25 121.25 36.25 126.25 31.25"/><circle class="cls-1" cx="66.25" cy="8.75" r="7.5"/><rect class="cls-2" x="21.08" y="80.74" width="90" height="10.13"/></g></g></svg>