<svg xmlns="http://www.w3.org/2000/svg" viewBox="0 0 122.5 112.5"><defs><style>.cls-1,.cls-3{fill:#fff;}.cls-1{stroke:#fff;}.cls-1,.cls-2{stroke-linecap:square;}.cls-1,.cls-2,.cls-3{stroke-linejoin:round;stroke-width:2.5px;}.cls-2{fill:none;}.cls-2,.cls-3{stroke:#263239;}</style></defs><title>Asset 26</title><g id="Layer_2" data-name="Layer 2"><g id="per_export" data-name="per export"><polygon class="cls-1" points="121.25 111.25 121.25 106.25 111.25 86.25 101.25 91.25 91.25 76.25 81.25 101.25 61.25 31.25 51.25 71.25 41.25 61.25 31.25 81.25 21.25 66.25 1.25 96.25 1.25 111.25 121.25 111.25"/><line class="cls-2" x1="61.25" y1="31.25" x2="61.25" y2="36.25"/><polygon class="cls-3" points="6.25 41.25 16.25 21.25 26.25 41.25 16.25 36.25 6.25 41.25"/><polygon class="cls-3" points="116.25 21.25 106.25 41.25 96.25 21.25 106.25 26.25 116.25 21.25"/><line class="cls-2" x1="11.25" y1="82.25" x2="11.25" y2="111.25"/><line class="cls-2" x1="21.25" y1="67.25" x2="21.25" y2="111.25"/><line class="cls-2" x1="31.25" y1="81.25" x2="31.25" y2="111.25"/><line class="cls-2" x1="41.25" y1="62.25" x2="41.25" y2="111.25"/><line class="cls-2" x1="51.25" y1="71.25" x2="51.25" y2="111.25"/><line class="cls-2" x1="71.25" y1="67.25" x2="71.25" y2="111.25"/><line class="cls-2" x1="81.25" y1="101.25" x2="81.25" y2="111.25"/><line class="cls-2" x1="91.25" y1="78.19" x2="91.25" y2="111.25"/><line class="cls-2" x1="101.25" y1="91.25" x2="101.25" y2="111.25"/><line class="cls-2" x1="111.25" y1="87.28" x2="111.25" y2="111.25"/><polyline class="cls-2" points="121.25 111.25 121.25 106.25 111.25 86.25 101.25 91.25 91.25 76.25 81.25 101.25 61.25 31.25 51.25 71.25 41.25 61.25 31.25 81.25 21.25 66.25 1.25 96.25 1.25 111.25"/><line class="cls-2" x1="61.25" y1="1.25" x2="61.25" y2="6.25"/><line class="cls-2" x1="61.25" y1="16.25" x2="61.25" y2="21.25"/><line class="cls-2" x1="61.25" y1="31.25" x2="61.25" y2="36.25"/><line class="cls-2" x1="61.25" y1="46.25" x2="61.25" y2="51.25"/><line class="cls-2" x1="61.25" y1="61.25" x2="61.25" y2="66.25"/><line class="cls-2" x1="61.25" y1="76.25" x2="61.25" y2="81.25"/><line class="cls-2" x1="61.25" y1="91.25" x2="61.25" y2="96.25"/><line class="cls-2" x1="61.25" y1="106.25" x2="61.25" y2="111.25"/><circle class="cls-3" cx="61.25" cy="31.25" r="5"/></g></g></svg>