<svg xmlns="http://www.w3.org/2000/svg" viewBox="0 0 132.5 99.37"><defs><style>.cls-1{fill:#fff;}.cls-1,.cls-2{stroke:#263239;stroke-linejoin:round;stroke-width:2.5px;}.cls-2{fill:none;}</style></defs><title>Asset 34</title><g id="Layer_2" data-name="Layer 2"><g id="per_export" data-name="per export"><polyline class="cls-1" points="106.25 56.25 131.25 31.25 101.25 1.25 91.25 11.25 71.25 11.25 66.25 16.25"/><path class="cls-1" d="M106.25,56.25c2.56,2.26,2.48,6.53-.18,9.55a7.11,7.11,0,0,1-9.82.45c2.56,2.26,2.42,6.59-.24,9.6s-7.2,2.66-9.76.4c2.56,2.26,2.42,6.59-.24,9.6s-7.2,2.66-9.76.4c2.56,2.26,2.48,6.53-.18,9.55a7.11,7.11,0,0,1-9.82.45l-65-65,30-30,10,10h20Z"/><line class="cls-2" x1="41.25" y1="11.25" x2="11.25" y2="41.25"/><path class="cls-1" d="M26.25,56.25a7.11,7.11,0,0,0,.45,9.82c3,2.66,7.29,2.74,9.55.18-2.26,2.56-2.62,7.1.4,9.76s7.34,2.8,9.6.24c-2.26,2.56-2.62,7.1.4,9.76s7.34,2.8,9.6.24a7.11,7.11,0,0,0,.45,9.82c3,2.66,7.29,2.74,9.55.18l10-10a7.11,7.11,0,0,0-.45-9.82c-3-2.66-7.29-2.74-9.55-.18,2.26-2.56,2.62-7.1-.4-9.76s-7.34-2.8-9.6-.24c2.26-2.56,2.62-7.1-.4-9.76s-7.34-2.8-9.6-.24a7.11,7.11,0,0,0-.45-9.82c-3-2.66-7.29-2.74-9.55-.18Z"/><line class="cls-2" x1="96.25" y1="66.25" x2="76.25" y2="46.25"/><line class="cls-2" x1="86.25" y1="76.25" x2="66.25" y2="56.25"/><line class="cls-2" x1="46.25" y1="76.25" x2="56.25" y2="66.25"/><line class="cls-2" x1="56.25" y1="86.25" x2="66.25" y2="76.25"/><line class="cls-2" x1="36.25" y1="66.25" x2="46.25" y2="56.25"/><path class="cls-1" d="M81.25,21.25,66.7,36.07c-2.26,2.56-6.53,2.47-9.54-.19a7.1,7.1,0,0,1-.46-9.81L71.25,11.25h20l30,30"/><circle class="cls-2" cx="28.75" cy="12.75" r="2.5"/><circle class="cls-2" cx="103.75" cy="12.75" r="2.5"/></g></g></svg>