<svg xmlns="http://www.w3.org/2000/svg" viewBox="0 0 112.5 102.5"><defs><style>.cls-1{fill:#ebf4f6;}.cls-1,.cls-2,.cls-3{stroke:#263239;stroke-linejoin:round;stroke-width:2.5px;}.cls-2,.cls-3{fill:none;}.cls-3{stroke-linecap:square;}</style></defs><title>Asset 30</title><g id="Layer_2" data-name="Layer 2"><g id="per_export" data-name="per export"><polygon class="cls-1" points="41.46 81.25 36.46 101.25 76.46 101.25 71.46 81.25 41.46 81.25"/><rect class="cls-1" x="1.25" y="1.25" width="110" height="80" rx="5"/><line class="cls-2" x1="1.46" y1="70.86" x2="111.55" y2="70.86"/><line class="cls-2" x1="51.46" y1="75.86" x2="61.46" y2="75.86"/><rect class="cls-2" x="11.46" y="11.25" width="25" height="5.09"/><line class="cls-3" x1="11.46" y1="21.34" x2="36.46" y2="21.34"/><line class="cls-2" x1="16.46" y1="61.25" x2="16.46" y2="46.34"/><line class="cls-2" x1="26.46" y1="61.25" x2="26.46" y2="51.25"/><line class="cls-2" x1="36.46" y1="61.25" x2="36.46" y2="46.25"/><line class="cls-2" x1="46.46" y1="61.25" x2="46.46" y2="41.25"/><line class="cls-2" x1="56.46" y1="61.25" x2="56.23" y2="36.08"/><line class="cls-2" x1="66.46" y1="61.25" x2="66.46" y2="46.34"/><line class="cls-2" x1="76.46" y1="61.25" x2="76.46" y2="41.34"/><line class="cls-2" x1="86.46" y1="61.25" x2="86.46" y2="36.25"/><line class="cls-2" x1="96.46" y1="61.25" x2="96.46" y2="31.25"/><line class="cls-2" x1="26.46" y1="101.25" x2="86.46" y2="101.25"/><line class="cls-3" x1="46.46" y1="11.25" x2="71.46" y2="11.25"/><line class="cls-3" x1="46.46" y1="16.25" x2="61.46" y2="16.25"/><line class="cls-3" x1="66.46" y1="16.25" x2="76.46" y2="16.25"/><line class="cls-3" x1="91.46" y1="11.25" x2="101.46" y2="11.25"/><line class="cls-2" x1="1.46" y1="70.86" x2="111.55" y2="70.86"/><line class="cls-3" x1="101.55" y1="61.25" x2="11.55" y2="61.25"/><polyline class="cls-3" points="11.46 36.25 16.46 36.25 21.46 41.25 31.46 41.25 36.46 31.25 46.46 31.25 51.55 26.25 61.55 26.25 66.55 36.25 76.55 36.25 81.55 26.25 91.46 26.25 96.55 21.25 101.46 21.25"/></g></g></svg>