<svg xmlns="http://www.w3.org/2000/svg" viewBox="0 0 122.5 97.5"><defs><style>.cls-1{fill:#ebf4f6;}.cls-1,.cls-2,.cls-3{stroke:#263239;stroke-linejoin:round;stroke-width:2.5px;}.cls-2{fill:#fff;}.cls-3{fill:none;}.cls-4{fill:#263239;}</style></defs><title>Asset 45</title><g id="Layer_2" data-name="Layer 2"><g id="outine_orig." data-name="outine orig."><path class="cls-1" d="M61.25,91.25c20,0,40-5,50-15s10-25,10-25l-5-25-35-20h-40l-35,20-5,25s0,15,10,25S41.25,91.25,61.25,91.25Z"/><polygon class="cls-1" points="6.25 26.25 1.25 6.25 16.25 1.25 41.25 6.25 6.25 26.25"/><polygon class="cls-1" points="116.25 26.25 121.25 6.25 106.25 1.25 81.25 6.25 116.25 26.25"/><circle class="cls-2" cx="61.25" cy="61.25" r="20"/><polygon class="cls-3" points="51.25 51.25 61.25 46.25 71.25 51.25 66.25 56.25 61.25 61.25 56.25 56.25 51.25 51.25"/><polyline class="cls-3" points="71.25 71.25 61.25 66.25 61.25 61.25"/><line class="cls-3" x1="61.25" y1="66.25" x2="51.25" y2="71.25"/><polygon class="cls-2" points="31.25 26.25 41.25 26.25 46.25 31.25 41.25 41.25 41.25 41.25 31.25 41.25 26.25 31.25 31.25 26.25"/><line class="cls-3" x1="46.25" y1="31.25" x2="51.25" y2="21.25"/><polygon class="cls-2" points="91.25 26.25 81.25 26.25 76.25 31.25 81.25 41.25 81.25 41.25 91.25 41.25 96.25 31.25 91.25 26.25"/><line class="cls-3" x1="76.25" y1="31.25" x2="71.25" y2="21.25"/><circle class="cls-1" cx="101.25" cy="81.25" r="15"/><polyline class="cls-1" points="111.25 81.25 101.25 91.25 91.25 81.25"/><line class="cls-1" x1="101.25" y1="91.25" x2="101.25" y2="71.25"/><circle class="cls-4" cx="36.25" cy="34.25" r="2.5"/><circle class="cls-4" cx="86.25" cy="34.25" r="2.5"/></g></g></svg>