<svg xmlns="http://www.w3.org/2000/svg" viewBox="0 0 132.5 112.5"><defs><style>.cls-1{fill:#ebf4f6;}.cls-1,.cls-2,.cls-3,.cls-4{stroke:#263239;stroke-width:2.5px;}.cls-1,.cls-2,.cls-3{stroke-linejoin:round;}.cls-2{fill:#fff;}.cls-3,.cls-4{fill:none;}.cls-4{stroke-miterlimit:10;}</style></defs><title>Asset 38</title><g id="Layer_2" data-name="Layer 2"><g id="per_export" data-name="per export"><rect class="cls-1" x="1.25" y="1.25" width="60" height="110"/><rect class="cls-1" x="71.25" y="1.25" width="60" height="110"/><polygon class="cls-2" points="86.25 36.64 86.25 46.64 91.25 41.64 101.25 36.64 111.25 41.64 116.25 46.64 116.25 46.64 116.25 36.64 111.25 31.64 91.25 31.64 86.25 36.64"/><polygon class="cls-2" points="111.25 41.64 111.25 16.64 91.25 16.64 91.25 41.64 101.25 37.27 111.25 41.64"/><line class="cls-3" x1="91.25" y1="31.64" x2="111.25" y2="31.64"/><polygon class="cls-2" points="116.25 76.64 116.25 66.64 111.25 71.64 101.25 76.64 91.25 71.64 86.25 66.64 86.25 66.64 86.25 76.64 91.25 81.64 111.25 81.64 116.25 76.64"/><polygon class="cls-2" points="91.25 61.64 91.25 96.64 111.25 96.64 111.25 61.64 101.25 66.02 91.25 61.64"/><line class="cls-3" x1="111.25" y1="81.64" x2="91.25" y2="81.64"/><line class="cls-3" x1="111.25" y1="91.64" x2="91.25" y2="91.64"/><polyline class="cls-2" points="15.82 47.41 8.13 59.05 15.82 59.05 19.73 66.64 27.43 55.1"/><polyline class="cls-2" points="46.59 47.41 54.28 59.05 46.59 59.05 42.81 66.64 35.12 55.1"/><circle class="cls-2" cx="31.27" cy="35.87" r="19.23"/><circle class="cls-2" cx="101.25" cy="56.64" r="20"/><circle class="cls-2" cx="101.25" cy="56.64" r="15"/><polyline class="cls-3" points="111.25 51.64 101.25 56.64 96.25 51.64"/><line class="cls-3" x1="101.25" y1="41.64" x2="101.25" y2="46.64"/><line class="cls-3" x1="101.25" y1="71.64" x2="101.25" y2="66.64"/><line class="cls-3" x1="111.25" y1="56.64" x2="116.25" y2="56.64"/><line class="cls-3" x1="86.25" y1="56.64" x2="91.25" y2="56.64"/><line class="cls-3" x1="91.25" y1="21.64" x2="111.25" y2="21.64"/><rect class="cls-2" x="121.25" y="51.64" width="5" height="7.5"/><polyline class="cls-3" points="21.25 31.64 31.25 46.64 41.25 26.64"/><line class="cls-3" x1="23.75" y1="91.64" x2="38.75" y2="91.64"/><line class="cls-3" x1="18.75" y1="96.64" x2="43.75" y2="96.64"/><rect class="cls-4" x="11.25" y="76.64" width="40" height="5"/></g></g></svg>