<svg xmlns="http://www.w3.org/2000/svg" viewBox="0 0 102.5 102.5"><defs><style>.cls-1{fill:#fff;}.cls-1,.cls-2,.cls-3{stroke:#263239;stroke-linejoin:round;stroke-width:2.5px;}.cls-2{fill:none;}.cls-3{fill:#ebf4f6;}</style></defs><title>Asset 33</title><g id="Layer_2" data-name="Layer 2"><g id="per_export" data-name="per export"><polygon class="cls-1" points="8.75 26.25 8.75 36.25 13.75 31.25 38.75 31.25 43.75 36.25 43.75 31.25 43.75 26.25 38.75 21.25 13.75 21.25 8.75 26.25"/><rect class="cls-1" x="13.75" y="1.25" width="25" height="30"/><line class="cls-1" x1="13.75" y1="11.25" x2="38.75" y2="11.25"/><polygon class="cls-1" points="43.75 76.25 43.75 66.25 38.75 71.25 13.75 71.25 8.75 66.25 8.75 71.25 8.75 76.25 13.75 81.25 38.75 81.25 43.75 76.25"/><rect class="cls-1" x="13.75" y="71.25" width="25" height="30"/><line class="cls-1" x1="38.75" y1="91.25" x2="13.75" y2="91.25"/><rect class="cls-1" x="66.25" y="1.25" width="25" height="25"/><line class="cls-2" x1="66.25" y1="16.25" x2="91.25" y2="16.25"/><line class="cls-2" x1="66.25" y1="21.25" x2="91.25" y2="21.25"/><line class="cls-2" x1="66.25" y1="11.25" x2="91.25" y2="11.25"/><rect class="cls-1" x="66.25" y="76.25" width="25" height="25"/><line class="cls-2" x1="91.25" y1="86.25" x2="66.25" y2="86.25"/><line class="cls-2" x1="91.25" y1="81.25" x2="66.25" y2="81.25"/><line class="cls-2" x1="91.25" y1="91.25" x2="66.25" y2="91.25"/><line class="cls-2" x1="91.25" y1="96.25" x2="66.25" y2="96.25"/><line class="cls-2" x1="66.25" y1="6.25" x2="91.25" y2="6.25"/><rect class="cls-1" x="61.25" y="26.25" width="35" height="50" rx="8"/><rect class="cls-3" x="66.25" y="31.25" width="25" height="40" rx="3"/><circle class="cls-1" cx="26.25" cy="51.25" r="25"/><circle class="cls-3" cx="26.25" cy="51.25" r="20"/><polyline class="cls-2" points="36.25 46.25 26.25 51.25 21.25 46.25"/><line class="cls-2" x1="26.25" y1="31.25" x2="26.25" y2="36.25"/><line class="cls-2" x1="41.25" y1="51.25" x2="46.25" y2="51.25"/><line class="cls-2" x1="6.25" y1="51.25" x2="11.25" y2="51.25"/><rect class="cls-1" x="51.25" y="48.75" width="5" height="5"/><polyline class="cls-2" points="88.75 46.25 78.75 51.25 73.75 46.25"/><line class="cls-2" x1="78.75" y1="26.25" x2="78.75" y2="36.25"/><line class="cls-2" x1="78.75" y1="71.25" x2="78.75" y2="76.25"/><line class="cls-2" x1="91.25" y1="51.25" x2="96.25" y2="51.25"/><line class="cls-2" x1="61.25" y1="51.25" x2="66.25" y2="51.25"/><rect class="cls-1" x="96.25" y="48.75" width="5" height="5"/><circle class="cls-2" cx="26.25" cy="61.25" r="5"/></g></g></svg>