<svg xmlns="http://www.w3.org/2000/svg" viewBox="0 0 112.5 112.5"><defs><style>.cls-1{fill:#ebf4f6;}.cls-1,.cls-2{stroke:#263239;stroke-linejoin:round;stroke-width:2.5px;}.cls-2{fill:none;}</style></defs><title>Asset 37</title><g id="Layer_2" data-name="Layer 2"><g id="per_export" data-name="per export"><circle class="cls-1" cx="56.25" cy="56.25" r="40"/><line class="cls-2" x1="56.25" y1="16.25" x2="56.25" y2="96.25"/><ellipse class="cls-2" cx="56.25" cy="56.25" rx="20" ry="40"/><path class="cls-2" d="M86.25,29.48c-7.33,4.15-18,6.77-30,6.77s-22.67-2.62-30-6.77"/><path class="cls-2" d="M26.25,83c7.33-4.15,18-6.77,30-6.77s22.67,2.62,30,6.77"/><line class="cls-2" x1="16.25" y1="56.25" x2="96.25" y2="56.25"/><path class="cls-2" d="M106.44,33.72a55,55,0,0,1-81.09,68"/><path class="cls-2" d="M87.15,10.74a55,55,0,0,0-81.09,68"/><circle class="cls-1" cx="98.38" cy="20.9" r="5"/><circle class="cls-1" cx="14.13" cy="91.6" r="5"/></g></g></svg>