<svg xmlns="http://www.w3.org/2000/svg" viewBox="0 0 112.5 117.5"><defs><style>.cls-1{fill:#ebf4f6;}.cls-1,.cls-2,.cls-3{stroke:#263239;stroke-linejoin:round;stroke-width:2.5px;}.cls-2{fill:none;}.cls-3{fill:#fff;}</style></defs><title>Asset 24</title><g id="Layer_2" data-name="Layer 2"><g id="per_export" data-name="per export"><path class="cls-1" d="M111.25,56.58a55,55,0,0,1-110,0c0-30.38,24.62-55.33,55-55.33S111.25,26.2,111.25,56.58Z"/><line class="cls-2" x1="56.25" y1="1.58" x2="56.25" y2="111.58"/><ellipse class="cls-2" cx="56.25" cy="56.58" rx="40" ry="55"/><path class="cls-2" d="M86.25,9.78a70.33,70.33,0,0,1-30,6.47,70.33,70.33,0,0,1-30-6.47"/><ellipse class="cls-2" cx="56.25" cy="56.25" rx="20" ry="55"/><line class="cls-2" x1="1.25" y1="56.58" x2="111.25" y2="56.58"/><path class="cls-2" d="M103.89,26.25c-9.51,6-27.28,10-47.64,10s-38.13-4-47.64-10"/><path class="cls-2" d="M26.25,102.72a70.33,70.33,0,0,1,30-6.47,70.33,70.33,0,0,1,30,6.47"/><path class="cls-2" d="M8.7,86.25c9.51-6,27.29-10,47.64-10s38.13,4,47.64,10"/><circle class="cls-3" cx="96.34" cy="56.16" r="5"/><circle class="cls-3" cx="56.34" cy="76.25" r="5"/><circle class="cls-3" cx="36.25" cy="56.25" r="5"/><circle class="cls-3" cx="56.25" cy="36.16" r="5"/><circle class="cls-3" cx="21.16" cy="31.16" r="5"/><path class="cls-3" d="M71.66,76.25l17.34-5,17.76,5v20c0,9.94-17.76,20-17.76,20s-17.34-9.87-17.34-19.87Z"/><polyline class="cls-3" points="79 86.25 89 101.25 99 81.25"/></g></g></svg>